<?xml version="1.0" encoding="UTF-8" standalone="no"?>
<!DOCTYPE svg PUBLIC "-//W3C//DTD SVG 1.1//EN" "http://www.w3.org/Graphics/SVG/1.1/DTD/svg11.dtd">
<svg width="100%" height="100%" viewBox="0 0 129 128" version="1.1" xmlns="http://www.w3.org/2000/svg" xmlns:xlink="http://www.w3.org/1999/xlink" xml:space="preserve" xmlns:serif="http://www.serif.com/" style="fill-rule:evenodd;clip-rule:evenodd;stroke-linejoin:round;stroke-miterlimit:2;">
    <g transform="matrix(1,0,0,1,-400,0)">
        <g transform="matrix(1.13067,0,0,1.13067,386.618,310.021)">
            <rect id="view-mode-fps" x="12.03" y="-274.192" width="113.207" height="113.207" style="fill:none;"/>
            <g id="view-mode-fps1" serif:id="view-mode-fps">
                <g transform="matrix(0.874113,0,0,0.874113,-446.954,-465.271)">
                    <path d="M589.84,245.836C627.481,245.836 650.634,283.106 650.634,283.106C650.634,283.106 621.997,320.872 589.84,320.872C557.683,320.872 529.046,283.106 529.046,283.106C529.046,283.106 552.199,245.836 589.84,245.836ZM589.84,252.371C572.877,252.371 559.104,266.143 559.104,283.106C559.104,300.07 572.877,313.842 589.84,313.842C606.803,313.842 620.575,300.07 620.575,283.106C620.575,266.143 606.803,252.371 589.84,252.371Z" style="fill:white;"/>
                </g>
                <g transform="matrix(0.59322,0,0,0.59322,-281.272,-385.749)">
                    <path d="M589.84,254.857C594.337,254.857 598.59,255.91 602.366,257.783C602.786,258.492 587.681,280.952 589.84,283.106C592.12,285.382 615.227,270.987 615.365,270.994C617.296,274.572 618.09,278.773 618.09,283.106C618.09,298.698 605.431,311.356 589.84,311.356C574.248,311.356 561.59,298.698 561.59,283.106C561.59,267.515 574.248,254.857 589.84,254.857Z" style="fill:white;"/>
                </g>
            </g>
        </g>
    </g>
</svg>
