<?xml version="1.0" encoding="UTF-8" standalone="no"?>
<!DOCTYPE svg PUBLIC "-//W3C//DTD SVG 1.1//EN" "http://www.w3.org/Graphics/SVG/1.1/DTD/svg11.dtd">
<svg width="100%" height="100%" viewBox="0 0 129 129" version="1.1" xmlns="http://www.w3.org/2000/svg" xmlns:xlink="http://www.w3.org/1999/xlink" xml:space="preserve" xmlns:serif="http://www.serif.com/" style="fill-rule:evenodd;clip-rule:evenodd;stroke-linecap:round;stroke-linejoin:round;stroke-miterlimit:1.5;">
    <g transform="matrix(1,0,0,1,-268,-322)">
        <g transform="matrix(1.13067,0,0,1.13067,255.375,632.34)">
            <rect id="view-mode-wireframe-transparent" x="12.03" y="-274.192" width="113.207" height="113.207" style="fill:none;"/>
            <g id="view-mode-wireframe-transparent1" serif:id="view-mode-wireframe-transparent">
                <g transform="matrix(0.820935,0,0,0.820935,-279.073,-594.229)">
                    <path d="M369.783,430.768C369.783,426.375 372.241,422.352 376.149,420.348C386.084,415.252 405.242,405.425 415.908,399.954C420.705,397.494 426.393,397.494 431.189,399.954C441.855,405.425 461.013,415.252 470.949,420.348C474.857,422.352 477.315,426.375 477.315,430.768C477.315,444.187 477.315,472.984 477.315,486.345C477.315,490.698 474.901,494.691 471.047,496.714C461.183,501.892 442.059,511.931 431.33,517.563C426.458,520.12 420.64,520.12 415.767,517.563C405.039,511.931 385.914,501.892 376.05,496.714C372.197,494.691 369.783,490.698 369.783,486.345C369.783,472.984 369.783,444.187 369.783,430.768Z" style="fill:none;stroke:white;stroke-width:7px;"/>
                </g>
                <g transform="matrix(0.820935,0,0,0.820935,-323.211,-572.146)">
                    <path d="M425.682,397.129C425.682,397.129 457.143,413.267 470.949,420.348C474.857,422.352 477.315,426.375 477.315,430.768C477.315,448.411 477.315,492.581 477.315,492.581" style="fill:none;stroke:white;stroke-width:3.23px;"/>
                </g>
                <g transform="matrix(0.820935,0,0,0.820935,-299.622,-583.741)">
                    <path d="M425.682,397.129C425.682,397.129 457.143,413.267 470.949,420.348C474.857,422.352 477.315,426.375 477.315,430.768C477.315,448.411 477.315,492.581 477.315,492.581" style="fill:none;stroke:white;stroke-width:3.23px;"/>
                </g>
                <g transform="matrix(-0.820935,0,0,0.820935,460.478,-572.146)">
                    <path d="M425.682,397.129C425.682,397.129 457.143,413.267 470.949,420.348C474.857,422.352 477.315,426.375 477.315,430.768C477.315,448.411 477.315,492.581 477.315,492.581" style="fill:none;stroke:white;stroke-width:3.23px;"/>
                </g>
                <g transform="matrix(-0.820935,0,0,0.820935,437.485,-583.741)">
                    <path d="M425.682,397.129C425.682,397.129 457.143,413.267 470.949,420.348C474.857,422.352 477.315,426.375 477.315,430.768C477.315,448.411 477.315,492.581 477.315,492.581" style="fill:none;stroke:white;stroke-width:3.23px;"/>
                </g>
                <g transform="matrix(0.884429,0,0,0.884429,-305.953,-1072.62)">
                    <path d="M375.608,966.761L415.171,987.054C420.683,989.342 426.258,989.391 431.899,987.054L471.461,966.761" style="fill:none;stroke:white;stroke-width:3px;"/>
                </g>
            </g>
        </g>
    </g>
</svg>
