<?xml version="1.0" encoding="UTF-8" standalone="no"?>
<!DOCTYPE svg PUBLIC "-//W3C//DTD SVG 1.1//EN" "http://www.w3.org/Graphics/SVG/1.1/DTD/svg11.dtd">
<svg width="100%" height="100%" viewBox="0 0 129 128" version="1.1" xmlns="http://www.w3.org/2000/svg" xmlns:xlink="http://www.w3.org/1999/xlink" xml:space="preserve" xmlns:serif="http://www.serif.com/" style="fill-rule:evenodd;clip-rule:evenodd;stroke-linecap:round;stroke-linejoin:round;stroke-miterlimit:1.5;">
    <g transform="matrix(1,0,0,1,-267,0)">
        <g transform="matrix(1.13067,0,0,1.13067,253.618,310.021)">
            <rect id="view-mode-left" x="12.03" y="-274.192" width="113.207" height="113.207" style="fill:none;"/>
            <g id="view-mode-left1" serif:id="view-mode-left">
                <g transform="matrix(0.98843,0,0,1.05902,-16.4962,-323.503)">
                    <path d="M79.994,52.288C83.843,50.445 88.408,50.445 92.258,52.288C101.44,56.684 118.508,64.855 126.266,68.569C127.041,68.94 127.528,69.684 127.528,70.496C127.528,71.308 127.041,72.052 126.266,72.422C118.508,76.136 101.44,84.308 92.258,88.703C88.408,90.546 83.843,90.546 79.994,88.703C70.812,84.308 53.743,76.136 45.985,72.422C45.211,72.052 44.724,71.308 44.724,70.496C44.724,69.684 45.211,68.94 45.985,68.569C53.743,64.855 70.812,56.684 79.994,52.288Z" style="fill:none;stroke:white;stroke-width:5.61px;"/>
                </g>
                <g transform="matrix(4.51747e-17,-0.737759,0.641299,3.92682e-17,35.9771,-118.73)">
                    <path d="M154.889,118.916C155.484,120.218 155.443,121.784 154.781,123.043C154.12,124.302 152.934,125.072 151.655,125.072C139.421,125.072 111.725,125.072 97.994,125.072C93.058,125.072 88.529,121.922 86.235,116.895C80.378,104.058 69.154,79.461 63.926,68.003C63.332,66.7 63.373,65.135 64.034,63.876C64.696,62.616 65.882,61.847 67.161,61.847C79.394,61.847 107.091,61.847 120.822,61.847C125.758,61.847 130.286,64.996 132.58,70.024C138.438,82.861 149.661,107.458 154.889,118.916Z" style="fill:white;stroke:white;stroke-width:8.32px;"/>
                </g>
                <g transform="matrix(-4.51747e-17,-0.737759,-0.641299,3.92682e-17,101.289,-118.73)">
                    <path d="M154.889,118.916C155.484,120.218 155.443,121.784 154.781,123.043C154.12,124.302 152.934,125.072 151.655,125.072C139.421,125.072 111.725,125.072 97.994,125.072C93.058,125.072 88.529,121.922 86.235,116.895C80.378,104.058 69.154,79.461 63.926,68.003C63.332,66.7 63.373,65.135 64.034,63.876C64.696,62.616 65.882,61.847 67.161,61.847C79.394,61.847 107.091,61.847 120.822,61.847C125.758,61.847 130.286,64.996 132.58,70.024C138.438,82.861 149.661,107.458 154.889,118.916Z" style="fill:none;stroke:white;stroke-width:8.32px;"/>
                </g>
            </g>
        </g>
    </g>
</svg>
