<?xml version="1.0" encoding="UTF-8" standalone="no"?>
<!DOCTYPE svg PUBLIC "-//W3C//DTD SVG 1.1//EN" "http://www.w3.org/Graphics/SVG/1.1/DTD/svg11.dtd">
<svg width="100%" height="100%" viewBox="0 0 128 129" version="1.1" xmlns="http://www.w3.org/2000/svg" xmlns:xlink="http://www.w3.org/1999/xlink" xml:space="preserve" xmlns:serif="http://www.serif.com/" style="fill-rule:evenodd;clip-rule:evenodd;stroke-linecap:round;stroke-linejoin:round;stroke-miterlimit:1.5;">
    <g transform="matrix(1,0,0,1,0,-322)">
        <g transform="matrix(1.13067,0,0,1.13067,-13.6016,632.34)">
            <rect id="view-mode-color" x="12.03" y="-274.192" width="113.207" height="113.207" style="fill:none;"/>
            <g id="view-mode-color1" serif:id="view-mode-color">
                <g transform="matrix(0.884429,0,0,0.884429,-11.9387,-1101.16)">
                    <path d="M91.013,1055.36C88.562,1055.35 86.113,1054.75 83.878,1053.58L47.012,1034.23C43.435,1032.35 41.194,1028.64 41.194,1024.6L41.194,973.016C41.194,970.733 41.91,968.558 43.176,966.759L85.198,988.313C88.524,990.019 90.718,993.298 91.06,996.974C91.029,997.308 91.013,997.645 91.013,997.985L91.013,1055.36Z" style="fill:rgb(177,106,106);stroke:white;stroke-width:3px;"/>
                </g>
                <g transform="matrix(0.884429,0,0,0.884429,-11.9387,-1101.16)">
                    <path d="M139.004,966.728C140.283,968.533 141.006,970.72 141.006,973.016L141.006,1024.6C141.006,1028.64 138.766,1032.35 135.189,1034.23L98.323,1053.58C96.064,1054.77 93.586,1055.36 91.107,1055.36L91.107,997.985C91.107,997.645 91.091,997.308 91.06,996.974C91.403,993.298 93.597,990.019 96.922,988.313L139.004,966.728Z" style="fill:rgb(120,224,168);stroke:white;stroke-width:3px;"/>
                </g>
                <g transform="matrix(0.884429,0,0,0.884429,-11.9387,-1101.16)">
                    <path d="M43.176,966.759C44.171,965.345 45.507,964.163 47.103,963.344L84.008,944.415C88.461,942.131 93.74,942.131 98.193,944.415L135.097,963.344C136.683,964.157 138.011,965.328 139.004,966.728L96.922,988.313C93.597,990.019 91.403,993.298 91.06,996.974C90.718,993.298 88.524,990.019 85.198,988.313L43.176,966.759Z" style="fill:rgb(119,185,225);stroke:white;stroke-width:3px;"/>
                </g>
                <g transform="matrix(0.820935,0,0,0.820935,-279.073,-594.229)">
                    <path d="M369.783,430.768C369.783,426.375 372.241,422.352 376.149,420.348C386.084,415.252 405.242,405.425 415.908,399.954C420.705,397.494 426.393,397.494 431.189,399.954C441.855,405.425 461.013,415.252 470.949,420.348C474.857,422.352 477.315,426.375 477.315,430.768C477.315,444.187 477.315,472.984 477.315,486.345C477.315,490.698 474.901,494.691 471.047,496.714C461.183,501.892 442.059,511.931 431.33,517.563C426.458,520.12 420.64,520.12 415.767,517.563C405.039,511.931 385.914,501.892 376.05,496.714C372.197,494.691 369.783,490.698 369.783,486.345C369.783,472.984 369.783,444.187 369.783,430.768Z" style="fill:none;stroke:white;stroke-width:7px;"/>
                </g>
            </g>
        </g>
    </g>
</svg>
